<svg version="1.1" xmlns="http://www.w3.org/2000/svg" xmlns:xlink="http://www.w3.org/1999/xlink" width="608.89969" height="293.13521" viewBox="0,0,608.89969,293.13521"><g transform="translate(-15.55018,-33.43241)"><g data-paper-data="{&quot;isPaintingLayer&quot;:true}" fill-rule="nonzero" stroke-linejoin="miter" stroke-miterlimit="10" stroke-dasharray="" stroke-dashoffset="0" style="mix-blend-mode: normal"><path d="M20.80019,325.31762c-2.20914,0 -4,-1.79086 -4,-4v-282.63521c0,-2.20914 1.79086,-4 4,-4h598.39969c2.20914,0 4,1.79086 4,4v282.63521c0,2.20914 -1.79086,4 -4,4z" fill="none" stroke="#ffffff" stroke-width="2.5" stroke-linecap="butt"/><path d="M20.59963,325.31763c-2.20914,0 -4,-1.79086 -4,-4v-282.63521c0,-2.20914 1.79086,-4 4,-4h598.39969c2.20914,0 4,1.79086 4,4v282.63521c0,2.20914 -1.79086,4 -4,4z" fill="#000000" stroke="none" stroke-width="0" stroke-linecap="butt"/><path d="M219.46583,325.31055v-290.62105" fill="none" stroke="#ffffff" stroke-width="1.5" stroke-linecap="butt"/><text transform="translate(20.80347,47.4586) scale(0.21297,0.21297)" font-size="40" xml:space="preserve" fill="#ffffff" fill-rule="nonzero" stroke="none" stroke-width="1" stroke-linecap="butt" stroke-linejoin="miter" stroke-miterlimit="10" stroke-dasharray="" stroke-dashoffset="0" font-family="Archivo Black" font-weight="normal" text-anchor="start" style="mix-blend-mode: normal"><tspan x="0" dy="0">Download rendering API - Select a version:</tspan></text><path d="M623.4195,55.08156h-607.64649" fill="none" stroke="#ffffff" stroke-width="1.5" stroke-linecap="butt"/><text transform="translate(224.97984,47.4586) scale(0.21297,0.21297)" font-size="40" xml:space="preserve" fill="#ffffff" fill-rule="nonzero" stroke="none" stroke-width="1" stroke-linecap="butt" stroke-linejoin="miter" stroke-miterlimit="10" stroke-dasharray="" stroke-dashoffset="0" font-family="Archivo Black" font-weight="normal" text-anchor="start" style="mix-blend-mode: normal"><tspan x="0" dy="0">Description:</tspan></text><path d="M28.82995,181.66662c-2.20914,0 -4,-1.79086 -4,-4v-109.7957c0,-2.20914 1.79086,-4 4,-4h178.62788c2.20914,0 4,1.79086 4,4v109.7957c0,2.20914 -1.79086,4 -4,4z" fill="none" stroke="#ffffff" stroke-width="2.5" stroke-linecap="butt"/><path d="M28.82995,181.66662c-2.20914,0 -4,-1.79086 -4,-4v-109.7957c0,-2.20914 1.79086,-4 4,-4h178.62788c2.20914,0 4,1.79086 4,4v109.7957c0,2.20914 -1.79086,4 -4,4z" fill="#000000" stroke="none" stroke-width="0" stroke-linecap="butt"/><path d="M623.43657,189.66745h-607.25979" fill="none" stroke="#ffffff" stroke-width="1.5" stroke-linecap="butt"/><path d="M211.55974,153.79009h-186.84393" fill="none" stroke="#ffffff" stroke-width="1.5" stroke-linecap="butt"/><text transform="translate(48.8774,170.69605) scale(0.21297,0.21297)" font-size="40" xml:space="preserve" fill="#ffffff" fill-rule="nonzero" stroke="none" stroke-width="1" stroke-linecap="butt" stroke-linejoin="miter" stroke-miterlimit="10" stroke-dasharray="" stroke-dashoffset="0" font-family="Archivo Black" font-weight="normal" text-anchor="start" style="mix-blend-mode: normal"><tspan x="0" dy="0">Core (bare bones) - Download</tspan></text><path d="M423.64216,34.6895v290.62105" fill="none" stroke="#ffffff" stroke-width="1.5" stroke-linecap="butt"/><text transform="translate(431.08966,47.4586) scale(0.21297,0.21297)" font-size="40" xml:space="preserve" fill="#ffffff" fill-rule="nonzero" stroke="none" stroke-width="1" stroke-linecap="butt" stroke-linejoin="miter" stroke-miterlimit="10" stroke-dasharray="" stroke-dashoffset="0" font-family="Archivo Black" font-weight="normal" text-anchor="start" style="mix-blend-mode: normal"><tspan x="0" dy="0">Preview:</tspan></text><path d="M28.82995,317.04167c-2.20914,0 -4,-1.79086 -4,-4v-109.7957c0,-2.20914 1.79086,-4 4,-4h178.62788c2.20914,0 4,1.79086 4,4v109.7957c0,2.20914 -1.79086,4 -4,4z" fill="none" stroke="#ffffff" stroke-width="2.5" stroke-linecap="butt"/><path d="M28.82995,317.04167c-2.20914,0 -4,-1.79086 -4,-4v-109.7957c0,-2.20914 1.79086,-4 4,-4h178.62788c2.20914,0 4,1.79086 4,4v109.7957c0,2.20914 -1.79086,4 -4,4z" fill="#000000" stroke="none" stroke-width="0" stroke-linecap="butt"/><path d="M211.55974,289.16514h-186.84393" fill="none" stroke="#ffffff" stroke-width="1.5" stroke-linecap="butt"/><text transform="translate(31.87135,306.97335) scale(0.21297,0.21297)" font-size="40" xml:space="preserve" fill="#ffffff" fill-rule="nonzero" stroke="none" stroke-width="1" stroke-linecap="butt" stroke-linejoin="miter" stroke-miterlimit="10" stroke-dasharray="" stroke-dashoffset="0" font-family="Archivo Black" font-weight="normal" text-anchor="start" style="mix-blend-mode: normal"><tspan x="0" dy="0">Game-ready (core+loader) - Download</tspan></text><text transform="translate(224.97984,69.50036) scale(0.21297,0.21297)" font-size="40" xml:space="preserve" fill="#ffffff" fill-rule="nonzero" stroke="none" stroke-width="1" stroke-linecap="butt" stroke-linejoin="miter" stroke-miterlimit="10" stroke-dasharray="" stroke-dashoffset="0" font-family="Archivo Black" font-weight="normal" text-anchor="start" style="mix-blend-mode: normal"><tspan x="0" dy="0">  Simple, lightweight, bare bones version of</tspan><tspan x="0" dy="48px">the renderer. Includes no boilerplate.</tspan><tspan x="0" dy="48px">Contains only the renderer. Very flexible.</tspan><tspan x="0" dy="48px"> </tspan><tspan x="0" dy="48px">  Requires technical knowledge for:</tspan><tspan x="0" dy="48px">- Pen+</tspan><tspan x="0" dy="48px">- PenguinMod</tspan><tspan x="0" dy="48px"> </tspan><tspan x="0" dy="48px">  You should read the written info provided</tspan><tspan x="0" dy="48px">before using this!</tspan></text><text transform="translate(224.97984,204.07113) scale(0.21297,0.21297)" font-size="40" xml:space="preserve" fill="#ffffff" fill-rule="nonzero" stroke="none" stroke-width="1" stroke-linecap="butt" stroke-linejoin="miter" stroke-miterlimit="10" stroke-dasharray="" stroke-dashoffset="0" font-family="Archivo Black" font-weight="normal" text-anchor="start" style="mix-blend-mode: normal"><tspan x="0" dy="0">  Includes the core and other features to</tspan><tspan x="0" dy="48px">help you get started if you are not technical.</tspan><tspan x="0" dy="48px"> </tspan><tspan x="0" dy="48px">  It comes with:</tspan><tspan x="0" dy="48px">- The renderer</tspan><tspan x="0" dy="48px">- Animation manager with GUI</tspan><tspan x="0" dy="48px">- Example code to get you started</tspan><tspan x="0" dy="48px"> </tspan><tspan x="0" dy="48px">  You still need moderate knowledge of Pen+</tspan><tspan x="0" dy="48px">and PenguinMod.</tspan></text><text transform="translate(224.97984,181.25597) scale(0.21297,0.21297)" font-size="40" xml:space="preserve" fill="#fff800" fill-rule="nonzero" stroke="none" stroke-width="1" stroke-linecap="butt" stroke-linejoin="miter" stroke-miterlimit="10" stroke-dasharray="" stroke-dashoffset="0" font-family="Archivo Black" font-weight="normal" text-anchor="start" style="mix-blend-mode: normal"><tspan x="0" dy="0">  -Recommeneded for large projects-</tspan></text><text transform="translate(224.97984,317.37352) scale(0.21297,0.21297)" font-size="40" xml:space="preserve" fill="#36ff00" fill-rule="nonzero" stroke="none" stroke-width="1" stroke-linecap="butt" stroke-linejoin="miter" stroke-miterlimit="10" stroke-dasharray="" stroke-dashoffset="0" font-family="Archivo Black" font-weight="normal" text-anchor="start" style="mix-blend-mode: normal"><tspan x="0" dy="0">  -Recommeneded for small projects-</tspan></text><text transform="translate(28.59006,103.30735) scale(0.21297,0.21297)" font-size="40" xml:space="preserve" fill="#ffffff" fill-rule="nonzero" stroke="none" stroke-width="1" stroke-linecap="butt" stroke-linejoin="miter" stroke-miterlimit="10" stroke-dasharray="" stroke-dashoffset="0" font-family="Archivo Black" font-weight="normal" text-anchor="start" style="mix-blend-mode: normal"><tspan x="0" dy="0">- Total blocks: [NUM]</tspan><tspan x="0" dy="48px">- Custom blocks: [NUM2]</tspan><tspan x="0" dy="48px">- Extensions: [NUM3]</tspan><tspan x="0" dy="48px"> </tspan><tspan x="0" dy="48px">-Latest version: 1.0</tspan></text><path d="M34.4724,212.55287h24.13325" fill="none" stroke="#000000" stroke-width="3" stroke-linecap="round"/><path d="M34.4724,218.21795h36.50226" fill="none" stroke="#000000" stroke-width="3" stroke-linecap="round"/><path d="M34.4724,222.97662h38.63585" fill="none" stroke="#000000" stroke-width="3" stroke-linecap="round"/><path d="M34.4724,227.73529h24.13325" fill="none" stroke="#000000" stroke-width="3" stroke-linecap="round"/><path d="M80.00144,215.61982c-1.10457,0 -2,-0.89543 -2,-2v-2.23053c0,-1.10457 0.89543,-2 2,-2h9.06014c1.10457,0 2,0.89543 2,2v2.23053c0,1.10457 -0.89543,2 -2,2z" fill="#000000" stroke="none" stroke-width="0" stroke-linecap="butt"/><path d="M80.00144,224.2467c-1.10457,0 -2,-0.89543 -2,-2v-2.23053c0,-1.10457 0.89543,-2 2,-2h9.06014c1.10457,0 2,0.89543 2,2v2.23053c0,1.10457 -0.89543,2 -2,2z" fill="#000000" stroke="none" stroke-width="0" stroke-linecap="butt"/><text transform="translate(28.59006,239.10982) scale(0.21297,0.21297)" font-size="40" xml:space="preserve" fill="#ffffff" fill-rule="nonzero" stroke="none" stroke-width="1" stroke-linecap="butt" stroke-linejoin="miter" stroke-miterlimit="10" stroke-dasharray="" stroke-dashoffset="0" font-family="Archivo Black" font-weight="normal" text-anchor="start" style="mix-blend-mode: normal"><tspan x="0" dy="0">- Total blocks: [NUM]</tspan><tspan x="0" dy="48px">- Custom blocks: [NUM2]</tspan><tspan x="0" dy="48px">- Extensions: [NUM3]</tspan><tspan x="0" dy="48px"> </tspan><tspan x="0" dy="48px">-Latest version: 1.0</tspan></text></g></g></svg>