<svg version="1.1" xmlns="http://www.w3.org/2000/svg" xmlns:xlink="http://www.w3.org/1999/xlink" width="139.59422" height="17.24745" viewBox="0,0,139.59422,17.24745"><g transform="translate(-250.20289,-171.37627)"><g data-paper-data="{&quot;isPaintingLayer&quot;:true}" fill-rule="nonzero" stroke-miterlimit="10" stroke-dasharray="" stroke-dashoffset="0" style="mix-blend-mode: normal"><path d="M255.45289,187.37372c-2.20914,0 -4,-1.79086 -4,-4v-6.74745c0,-2.20914 1.79086,-4 4,-4h129.09422c2.20914,0 4,1.79086 4,4v6.74745c0,2.20914 -1.79086,4 -4,4z" fill="none" stroke="#ffffff" stroke-width="2.5" stroke-linecap="butt" stroke-linejoin="miter"/><path d="M255.45289,187.37372c-2.20914,0 -4,-1.79086 -4,-4v-6.74745c0,-2.20914 1.79086,-4 4,-4h129.09422c2.20914,0 4,1.79086 4,4v6.74745c0,2.20914 -1.79086,4 -4,4z" fill="#000000" stroke="none" stroke-width="0" stroke-linecap="butt" stroke-linejoin="miter"/><path d="M372.08375,187.72305v-15.39515" fill="none" stroke="#ffffff" stroke-width="1.5" stroke-linecap="butt" stroke-linejoin="miter"/><path d="M375.8293,176.22606h10.06384M383.37718,176.22606l-0.1702,-0.5107c-0.16498,-0.4949 -0.2475,-0.74235 -0.40048,-0.9253c-0.13511,-0.16155 -0.30859,-0.2866 -0.50458,-0.36368c-0.22197,-0.08729 -0.48275,-0.08729 -1.00443,-0.08729h-0.87254c-0.52168,0 -0.78247,0 -1.00443,0.08729c-0.19599,0.07708 -0.36949,0.20212 -0.50459,0.36368c-0.153,0.18295 -0.23547,0.4304 -0.40045,0.9253l-0.17023,0.5107M384.63516,176.22606v6.4157c0,1.05683 0,1.58518 -0.20568,1.98887c-0.1809,0.35507 -0.46954,0.64371 -0.82461,0.8246c-0.40368,0.20568 -0.93204,0.20568 -1.98887,0.20568h-1.50958c-1.0568,0 -1.5852,0 -1.98885,-0.20568c-0.35506,-0.1809 -0.64373,-0.46954 -0.82464,-0.8246c-0.20567,-0.40368 -0.20567,-0.93204 -0.20567,-1.98887v-6.4157M382.11921,178.74204v4.40293M379.60324,178.74204v4.40293" fill="none" stroke="#ffffff" stroke-width="1.5" stroke-linecap="round" stroke-linejoin="round"/><path d="M356.30099,187.72305v-15.39515" fill="none" stroke="#ffffff" stroke-width="1.5" stroke-linecap="butt" stroke-linejoin="miter"/><path d="M369.56021,175.65911c0,1.1426 0,6.18302 0,8.4516c0,0.68182 -0.57943,1.11326 -0.99974,1.11326c-1.13445,0 -6.30243,0 -8.47818,0c-0.59804,0 -0.97002,-0.44284 -0.97002,-1.13983c0,-2.26498 0,-7.21388 0,-8.37187c0,-0.4751 0.46516,-0.93624 0.94344,-0.93624c1.22535,0 6.66519,0 8.71738,0c0.49021,0 0.78712,0.43156 0.78712,0.88308zM364.32258,177.35931c0,0.41216 0.33413,0.74629 0.74628,0.74629c0.41215,0 0.74628,-0.33413 0.74628,-0.74629c0,-0.41216 -0.33413,-0.74628 -0.74628,-0.74628c-0.41215,0 -0.74628,0.33412 -0.74628,0.74628zM367.72321,181.64545l-1.06459,-1.12329l-1.58976,0.92472l-2.21044,-1.57963l-1.90914,2.01439v1.50533h6.77393z" fill="#ffffff" stroke="none" stroke-width="1" stroke-linecap="butt" stroke-linejoin="miter"/><path d="M347.25171,172.3279v15.39515" fill="none" stroke="#ffffff" stroke-width="1.5" stroke-linecap="butt" stroke-linejoin="miter"/><path d="M355.61962,180.02548h-8.25674" fill="none" stroke="#ffffff" stroke-width="1.5" stroke-linecap="butt" stroke-linejoin="miter"/><path d="M349.77395,176.83958l2.02491,-2.02491l2.01052,2.01052" fill="none" stroke="#ffffff" stroke-width="1.5" stroke-linecap="butt" stroke-linejoin="round"/><path d="M353.80939,183.15951l-2.02491,2.02491l-2.01052,-2.01052" fill="none" stroke="#ffffff" stroke-width="1.5" stroke-linecap="butt" stroke-linejoin="round"/></g></g></svg>