<svg version="1.1" xmlns="http://www.w3.org/2000/svg" xmlns:xlink="http://www.w3.org/1999/xlink" width="332.16613" height="22.45026" viewBox="0,0,332.16613,22.45026"><g transform="translate(-153.91693,-4.49406)"><g data-paper-data="{&quot;isPaintingLayer&quot;:true}" fill-rule="nonzero" stroke-linecap="butt" stroke-linejoin="miter" stroke-miterlimit="10" stroke-dasharray="" stroke-dashoffset="0" style="mix-blend-mode: normal"><path d="M154.54194,22.28941c0,-2.55485 0,-8.85835 0,-13.08615c0,-1.95417 1.6718,-4.0842 4.1916,-4.0842c21.47999,0 281.41481,0 321.96007,0c3.10026,0 4.76446,2.39089 4.76446,4.29445c0,2.27087 0,7.92264 0,12.06876c0,2.74962 -2.10872,4.83705 -6.00077,4.83705c-44.79932,0 -299.6474,0 -320.78434,0c-2.48517,0 -4.13101,-2.22009 -4.13101,-4.02991z" fill="#1f1f1f" stroke="#ffffff" stroke-width="1.25"/><path d="M186.49875,25.81384v-20.95436" data-paper-data="{&quot;index&quot;:null}" fill="none" stroke="#ffffff" stroke-width="1.5"/><text transform="translate(159.44923,19.38331) scale(0.28867,0.28867)" font-size="40" xml:space="preserve" fill="#ffffff" fill-rule="nonzero" stroke="none" stroke-width="1" stroke-linecap="butt" stroke-linejoin="miter" stroke-miterlimit="10" stroke-dasharray="" stroke-dashoffset="0" font-family="Archivo Black" font-weight="normal" text-anchor="start" style="mix-blend-mode: normal"><tspan x="0" dy="0">File</tspan></text><path d="M228.16465,25.81384v-20.95436" data-paper-data="{&quot;index&quot;:null}" fill="none" stroke="#ffffff" stroke-width="1.5"/><text transform="translate(191.42459,19.38331) scale(0.28867,0.28867)" font-size="40" xml:space="preserve" fill="#ffffff" fill-rule="nonzero" stroke="none" stroke-width="1" stroke-linecap="butt" stroke-linejoin="miter" stroke-miterlimit="10" stroke-dasharray="" stroke-dashoffset="0" font-family="Archivo Black" font-weight="normal" text-anchor="start" style="mix-blend-mode: normal"><tspan x="0" dy="0">Anim</tspan></text><path d="M426.70627,25.81384v-20.95436" data-paper-data="{&quot;index&quot;:null}" fill="none" stroke="#ffffff" stroke-width="1.5"/><text transform="translate(431.20045,19.38331) scale(0.28867,0.28867)" font-size="40" xml:space="preserve" fill="#ffffff" fill-rule="nonzero" stroke="none" stroke-width="1" stroke-linecap="butt" stroke-linejoin="miter" stroke-miterlimit="10" stroke-dasharray="" stroke-dashoffset="0" font-family="Archivo Black" font-weight="normal" text-anchor="start" style="mix-blend-mode: normal"><tspan x="0" dy="0">Options</tspan></text><path d="M411.53543,25.81384v-20.95436" data-paper-data="{&quot;index&quot;:null}" fill="none" stroke="#ffffff" stroke-width="1.5"/><text transform="translate(415.75014,19.38331) scale(0.28867,0.28867)" font-size="40" xml:space="preserve" fill="#ffffff" fill-rule="nonzero" stroke="none" stroke-width="1" stroke-linecap="butt" stroke-linejoin="miter" stroke-miterlimit="10" stroke-dasharray="" stroke-dashoffset="0" font-family="Archivo Black" font-weight="normal" text-anchor="start" style="mix-blend-mode: normal"><tspan x="0" dy="0">?</tspan></text><path d="M408.91154,25.91563v-20.34151h70.92154v20.34151z" fill="#1f1f1f" stroke="none" stroke-width="0"/><path d="M154.54194,22.28941c0,-2.55485 0,-8.85835 0,-13.08615c0,-1.95417 1.6718,-4.0842 4.1916,-4.0842c21.47999,0 281.41481,0 321.96007,0c3.10026,0 4.76446,2.39089 4.76446,4.29445c0,2.27087 0,7.92264 0,12.06876c0,2.74962 -2.10872,4.83705 -6.00077,4.83705c-44.79932,0 -299.6474,0 -320.78434,0c-2.48517,0 -4.13101,-2.22009 -4.13101,-4.02991z" fill="none" stroke="#ffffff" stroke-width="1.25"/></g></g></svg>