<svg version="1.1" xmlns="http://www.w3.org/2000/svg" xmlns:xlink="http://www.w3.org/1999/xlink" width="120.29896" height="44.64189" viewBox="0,0,120.29896,44.64189"><g transform="translate(-259.85219,-157.66218)"><g data-paper-data="{&quot;isPaintingLayer&quot;:true}" fill-rule="nonzero" stroke-linecap="butt" stroke-miterlimit="10" stroke-dasharray="" stroke-dashoffset="0" style="mix-blend-mode: normal"><path d="M265.10219,201.05407c-2.20914,0 -4,-1.79086 -4,-4v-34.14189c0,-2.20914 1.79086,-4 4,-4h113.79886l-0.00316,38.14189c0,2.20914 -1.79086,4 -4,4z" fill="none" stroke="#ffffff" stroke-width="2.5" stroke-linejoin="miter"/><path d="M265.10219,201.05407c-2.20914,0 -4,-1.79086 -4,-4v-34.14189c0,-2.20914 1.79086,-4 4,-4h113.79886l-0.00316,38.14189c0,2.20914 -1.79086,4 -4,4z" fill="#000000" stroke="none" stroke-width="0" stroke-linejoin="miter"/><path d="M350.13486,185.14662v-26.22804h28.78317v26.22804z" fill="#1f1f1f" stroke="none" stroke-width="0" stroke-linejoin="miter"/><path d="M379.39362,185.59889h-118.78719" fill="none" stroke="#ffffff" stroke-width="1.5" stroke-linejoin="miter"/><path d="M349.93612,158.61837v27.45886" fill="none" stroke="#ffffff" stroke-width="1.5" stroke-linejoin="miter"/><path d="M314.51416,193.36213l3.63276,3.63276l7.33891,-7.33891" fill="none" stroke="#ffffff" stroke-width="4" stroke-linejoin="round"/></g></g></svg>