<svg version="1.1" xmlns="http://www.w3.org/2000/svg" xmlns:xlink="http://www.w3.org/1999/xlink" width="120.37717" height="131.40618" viewBox="0,0,120.37717,131.40618"><g transform="translate(-259.77068,-108.74168)"><g data-paper-data="{&quot;isPaintingLayer&quot;:true}" fill-rule="nonzero" stroke-linecap="butt" stroke-linejoin="miter" stroke-miterlimit="10" stroke-dasharray="" stroke-dashoffset="0" style="mix-blend-mode: normal"><path d="M265.10215,238.89785c-2.20914,0 -4,-1.79086 -4,-4v-109.7957c0,-2.20914 1.79086,-4 4,-4h109.7957c2.20914,0 4,1.79086 4,4v109.7957c0,2.20914 -1.79086,4 -4,4z" fill="none" stroke="#ffffff" stroke-width="2.5"/><path d="M265.10215,238.89785c-2.20914,0 -4,-1.79086 -4,-4v-109.7957c0,-2.20914 1.79086,-4 4,-4h109.7957c2.20914,0 4,1.79086 4,4v109.7957c0,2.20914 -1.79086,4 -4,4z" fill="#000000" stroke="none" stroke-width="0"/><path d="M320,238.89077v-117.78154" fill="none" stroke="#ffffff" stroke-width="1.5"/><path d="M261.10923,179.99827h118.04203" fill="none" stroke="#ffffff" stroke-width="1.5"/><text transform="translate(322.14837,128.6828) scale(0.19254,0.19254)" font-size="40" xml:space="preserve" fill="#ffffff" fill-rule="nonzero" stroke="none" stroke-width="1" stroke-linecap="butt" stroke-linejoin="miter" stroke-miterlimit="10" stroke-dasharray="" stroke-dashoffset="0" font-family="Archivo Black" font-weight="normal" text-anchor="start" style="mix-blend-mode: normal"><tspan x="0" dy="0">Y</tspan></text><text transform="translate(371.77414,177.82017) scale(0.19254,0.19254)" font-size="40" xml:space="preserve" fill="#ffffff" fill-rule="nonzero" stroke="none" stroke-width="1" stroke-linecap="butt" stroke-linejoin="miter" stroke-miterlimit="10" stroke-dasharray="" stroke-dashoffset="0" font-family="Archivo Black" font-weight="normal" text-anchor="start" style="mix-blend-mode: normal"><tspan x="0" dy="0">X</tspan></text><text transform="translate(370.88238,129.27169) scale(0.18759,0.18759)" font-size="40" xml:space="preserve" fill="#ffffff" fill-rule="nonzero" stroke="none" stroke-width="1" stroke-linecap="butt" stroke-linejoin="miter" stroke-miterlimit="10" stroke-dasharray="" stroke-dashoffset="0" font-family="Archivo Black" font-weight="normal" text-anchor="start" style="mix-blend-mode: normal"><tspan x="0" dy="0">+</tspan></text><text transform="translate(263.43546,236.44528) scale(0.18759,0.18759)" font-size="40" xml:space="preserve" fill="#ffffff" fill-rule="nonzero" stroke="none" stroke-width="1" stroke-linecap="butt" stroke-linejoin="miter" stroke-miterlimit="10" stroke-dasharray="" stroke-dashoffset="0" font-family="Archivo Black" font-weight="normal" text-anchor="start" style="mix-blend-mode: normal"><tspan x="0" dy="0">-</tspan></text><text transform="translate(259.87717,116.30211) scale(0.21297,0.21297)" font-size="40" xml:space="preserve" fill="#ffffff" fill-rule="nonzero" stroke="none" stroke-width="1" stroke-linecap="butt" stroke-linejoin="miter" stroke-miterlimit="10" stroke-dasharray="" stroke-dashoffset="0" font-family="Archivo Black" font-weight="normal" text-anchor="start" style="mix-blend-mode: normal"><tspan x="0" dy="0">Velocity</tspan></text></g></g></svg>