<svg version="1.1" xmlns="http://www.w3.org/2000/svg" xmlns:xlink="http://www.w3.org/1999/xlink" width="139.47224" height="40.47702" viewBox="0,0,139.47224,40.47702"><g transform="translate(-250.15642,-160.11019)"><g data-paper-data="{&quot;isPaintingLayer&quot;:true}" fill-rule="nonzero" stroke-linejoin="miter" stroke-miterlimit="10" stroke-dasharray="" stroke-dashoffset="0" style="mix-blend-mode: normal"><path d="M255.40642,199.33721c-2.20914,0 -4,-1.79086 -4,-4v-29.97702c0,-2.20914 1.79086,-4 4,-4h128.97224c2.20914,0 4,1.79086 4,4v29.97702c0,2.20914 -1.79086,4 -4,4z" fill="none" stroke="#ffffff" stroke-width="2.5" stroke-linecap="butt"/><path d="M255.40642,199.33721c-2.20914,0 -4,-1.79086 -4,-4v-29.97702c0,-2.20914 1.79086,-4 4,-4h128.97224c2.20914,0 4,1.79086 4,4v29.97702c0,2.20914 -1.79086,4 -4,4z" fill="#000000" stroke="none" stroke-width="0" stroke-linecap="butt"/><path d="M389.24239,176.85632h-138.48478" fill="none" stroke="#ffffff" stroke-width="1.5" stroke-linecap="butt"/><path d="M371.53257,160.6628v16.27548" fill="none" stroke="#ffffff" stroke-width="1.5" stroke-linecap="butt"/><path d="M374.72489,171.03887c0,0 6.35619,-6.35619 7.4308,-7.4308c0.29769,-0.29769 0.88703,-0.25342 1.15849,0.01805c0.40626,0.40626 1.58931,1.58931 2.33537,2.33537c0.37505,0.37505 0.31309,0.98546 0.00217,1.29637c-1.09292,1.09291 -7.36354,7.34431 -7.36354,7.34431l-3.90711,0.11194z" fill="#ffffff" stroke="none" stroke-width="0" stroke-linecap="butt"/><path d="M374.41159,170.73687l4.43526,4.43526" fill="none" stroke="#000000" stroke-width="1.5" stroke-linecap="round"/></g></g></svg>