<svg version="1.1" xmlns="http://www.w3.org/2000/svg" xmlns:xlink="http://www.w3.org/1999/xlink" width="120.29896" height="44.64189" viewBox="0,0,120.29896,44.64189"><g transform="translate(-259.85219,-157.66218)"><g data-paper-data="{&quot;isPaintingLayer&quot;:true}" fill-rule="nonzero" stroke-miterlimit="10" stroke-dasharray="" stroke-dashoffset="0" style="mix-blend-mode: normal"><path d="M265.10219,201.05407c-2.20914,0 -4,-1.79086 -4,-4v-34.14189c0,-2.20914 1.79086,-4 4,-4h113.79886l-0.00316,38.14189c0,2.20914 -1.79086,4 -4,4z" fill="none" stroke="#ffffff" stroke-width="2.5" stroke-linecap="butt" stroke-linejoin="miter"/><path d="M265.10219,201.05407c-2.20914,0 -4,-1.79086 -4,-4v-34.14189c0,-2.20914 1.79086,-4 4,-4h113.79886l-0.00316,38.14189c0,2.20914 -1.79086,4 -4,4z" fill="#000000" stroke="none" stroke-width="0" stroke-linecap="butt" stroke-linejoin="miter"/><path d="M350.13486,185.14662v-26.22804h28.78317v26.22804z" fill="#1f1f1f" stroke="none" stroke-width="0" stroke-linecap="butt" stroke-linejoin="miter"/><path d="M379.39362,185.59889h-118.78719" fill="none" stroke="#ffffff" stroke-width="1.5" stroke-linecap="butt" stroke-linejoin="miter"/><path d="M320.00002,185.69539v15.68624" fill="none" stroke="#ffffff" stroke-width="1.5" stroke-linecap="butt" stroke-linejoin="miter"/><path d="M344.8158,189.93043h10.06384M352.36368,189.93043l-0.1702,-0.5107c-0.16498,-0.4949 -0.2475,-0.74235 -0.40048,-0.9253c-0.13511,-0.16155 -0.30859,-0.2866 -0.50458,-0.36368c-0.22197,-0.08729 -0.48275,-0.08729 -1.00443,-0.08729h-0.87254c-0.52168,0 -0.78247,0 -1.00443,0.08729c-0.19599,0.07708 -0.36949,0.20212 -0.50459,0.36368c-0.153,0.18295 -0.23547,0.4304 -0.40045,0.9253l-0.17023,0.5107M353.62166,189.93043v6.4157c0,1.05683 0,1.58518 -0.20568,1.98887c-0.1809,0.35507 -0.46954,0.64371 -0.82461,0.8246c-0.40368,0.20568 -0.93204,0.20568 -1.98887,0.20568h-1.50958c-1.0568,0 -1.5852,0 -1.98885,-0.20568c-0.35506,-0.1809 -0.64373,-0.46954 -0.82464,-0.8246c-0.20567,-0.40368 -0.20567,-0.93204 -0.20567,-1.98887v-6.4157M351.10571,192.44639v4.40293M348.58974,192.44639v4.40293" fill="none" stroke="#ffffff" stroke-width="1.5" stroke-linecap="round" stroke-linejoin="round"/><g fill="#ffffff" stroke="none" stroke-width="1" stroke-linecap="butt" stroke-linejoin="miter"><path d="M288.96038,199.62205c0,0.20864 -0.18256,0.39119 -0.39119,0.39119h-3.91191c-0.20864,0 -0.39119,-0.18256 -0.39119,-0.39119v-2.86874c0,-0.20864 0.18256,-0.39119 0.39119,-0.39119h3.91191c0.20864,0 0.39119,0.18256 0.39119,0.39119z"/><path d="M290.0036,188.53828v1.56477c-1.30397,0 -2.58187,1.30397 -2.58187,2.60794h1.22574c0.26079,0 0.39119,0.20864 0.23471,0.36511l-2.08636,2.16459c-0.10432,0.07824 -0.2608,0.07824 -0.36511,0l-2.08636,-2.16459c-0.15648,-0.1304 -0.02608,-0.36511 0.23471,-0.36511h1.2779c0,-2.34715 1.79948,-4.17271 4.14663,-4.17271z"/><path d="M296.75817,194.43224c0.15648,0.1304 0.02608,0.36511 -0.23471,0.36511h-1.2779c0,2.34715 -1.85164,4.17271 -4.19879,4.17271v-1.56476c1.56477,0 2.63402,-1.04318 2.63402,-2.60795h-1.25181c-0.26079,0 -0.39119,-0.20863 -0.23471,-0.36511l2.08636,-2.1646c0.10432,-0.07824 0.2608,-0.07824 0.36511,0z"/><path d="M296.78424,190.75503c0,0.20864 -0.18256,0.39119 -0.39119,0.39119h-3.91192c-0.20864,0 -0.39119,-0.18256 -0.39119,-0.39119v-2.86874c0,-0.20864 0.18255,-0.39119 0.39119,-0.39119h3.91192c0.20864,0 0.39119,0.18256 0.39119,0.39119z"/></g><path d="M349.93612,158.61837v27.45886" fill="none" stroke="#ffffff" stroke-width="1.5" stroke-linecap="butt" stroke-linejoin="miter"/></g></g></svg>