<svg version="1.1" xmlns="http://www.w3.org/2000/svg" xmlns:xlink="http://www.w3.org/1999/xlink" width="64.00433" height="52.25125" viewBox="0,0,64.00433,52.25125"><g transform="translate(-153.91694,-30.57229)"><g data-paper-data="{&quot;isPaintingLayer&quot;:true}" fill-rule="nonzero" stroke-linecap="butt" stroke-linejoin="miter" stroke-miterlimit="10" stroke-dasharray="" stroke-dashoffset="0" style="mix-blend-mode: normal"><path d="M154.54195,78.16863c0,-2.55485 0,-38.65934 0,-42.88714c0,-1.95417 1.6718,-4.0842 4.1916,-4.0842c21.47999,0 13.25301,0 53.79827,0c3.10026,0 4.76446,2.39089 4.76446,4.29445c0,2.09955 0,41.55696 0,41.86975c0,2.74962 -2.10872,4.83705 -6.00077,4.83705c-44.79932,0 -31.4856,0 -52.62254,0c-2.48517,0 -4.13101,-2.22009 -4.13101,-4.02991z" fill="#1f1f1f" stroke="#ffffff" stroke-width="1.25"/><path d="M154.8538,48.53158h62.1353" data-paper-data="{&quot;index&quot;:null}" fill="none" stroke="#ffffff" stroke-width="1.5"/><text transform="translate(159.44923,43.43761) scale(0.28867,0.28867)" font-size="40" xml:space="preserve" fill="#ffffff" fill-rule="nonzero" stroke="none" stroke-width="1" stroke-linecap="butt" stroke-linejoin="miter" stroke-miterlimit="10" stroke-dasharray="" stroke-dashoffset="0" font-family="Archivo Black" font-weight="normal" text-anchor="start" style="mix-blend-mode: normal"><tspan x="0" dy="0">Open</tspan></text><path d="M216.9891,65.3696h-62.1353" data-paper-data="{&quot;index&quot;:null}" fill="none" stroke="#ffffff" stroke-width="1.5"/><text transform="translate(159.44923,60.2756) scale(0.28867,0.28867)" font-size="40" xml:space="preserve" fill="#ffffff" fill-rule="nonzero" stroke="none" stroke-width="1" stroke-linecap="butt" stroke-linejoin="miter" stroke-miterlimit="10" stroke-dasharray="" stroke-dashoffset="0" font-family="Archivo Black" font-weight="normal" text-anchor="start" style="mix-blend-mode: normal"><tspan x="0" dy="0">Save as</tspan></text><text transform="translate(159.44923,77.22712) scale(0.28867,0.28867)" font-size="40" xml:space="preserve" fill="#ffffff" fill-rule="nonzero" stroke="none" stroke-width="1" stroke-linecap="butt" stroke-linejoin="miter" stroke-miterlimit="10" stroke-dasharray="" stroke-dashoffset="0" font-family="Archivo Black" font-weight="normal" text-anchor="start" style="mix-blend-mode: normal"><tspan x="0" dy="0">Exit</tspan></text></g></g></svg>