<svg version="1.1" xmlns="http://www.w3.org/2000/svg" xmlns:xlink="http://www.w3.org/1999/xlink" width="112.49065" height="215.81181" viewBox="0,0,112.49065,215.81181"><defs><linearGradient x1="222.71751" y1="72.09411" x2="222.71751" y2="268.28963" gradientUnits="userSpaceOnUse" id="color-1"><stop offset="0" stop-color="#d99e82"/><stop offset="1" stop-color="#d94500"/></linearGradient><linearGradient x1="223.62479" y1="128.75497" x2="223.62479" y2="195.65159" gradientUnits="userSpaceOnUse" id="color-2"><stop offset="0" stop-color="#3e5766"/><stop offset="1" stop-color="#324551"/></linearGradient><radialGradient cx="229.71863" cy="237.85398" r="29.51183" gradientUnits="userSpaceOnUse" id="color-3"><stop offset="0" stop-color="#324551"/><stop offset="1" stop-color="#3e5766"/></radialGradient><radialGradient cx="280.51161" cy="281.08708" r="34.75739" gradientUnits="userSpaceOnUse" id="color-4"><stop offset="0" stop-color="#324551"/><stop offset="1" stop-color="#3e5766"/></radialGradient></defs><g transform="translate(-183.75467,-72.0941)"><g data-paper-data="{&quot;isPaintingLayer&quot;:true}" stroke-linecap="butt" stroke-linejoin="miter" stroke-miterlimit="10" stroke-dasharray="" stroke-dashoffset="0" style="mix-blend-mode: normal"><path d="M281.05913,237.70589c1.58492,0.99328 3.80443,-2.52749 3.80443,-2.52749c-0.05904,1.52525 0.04943,3.55638 0.04943,3.55638c1.92292,-0.07767 2.6244,-3.22376 2.6244,-3.22376c1.97729,4.46766 -1.1179,5.64624 -1.1179,5.64624c1.81097,-0.65561 2.77409,-1.64187 2.77409,-1.64187c0.02923,1.22353 -2.85397,4.1587 -2.85397,4.1587c2.06983,0.08016 3.67249,-2.64529 3.67249,-2.64529c-0.05673,1.76122 0.68861,2.4628 -0.07409,4.34404c-0.08321,0.20527 -0.14227,0.43473 -0.00905,0.50084c1.83143,0.9088 4.53342,0.1253 4.53342,0.1253c-1.05446,1.10361 -2.31848,2.69723 -2.31848,2.69723c1.49211,1.21542 4.10143,-0.67709 4.10143,-0.67709c-1.47762,4.65685 -4.57722,3.48983 -4.57722,3.48983c1.79103,0.70824 3.16586,0.60722 3.16586,0.60722c-0.78848,0.93605 -4.89265,1.22552 -4.89265,1.22552c1.49767,1.43096 4.50351,0.45048 4.50351,0.45048c-10.30212,10.92381 -7.21061,1.53291 -7.87983,-5.05545c-2.3083,-1.81797 -5.52902,-7.34104 -8.94703,-8.22711z" fill="#fbf8ea" fill-rule="nonzero" stroke="none" stroke-width="1"/><path d="M268.96733,284.55513c4.90239,-12.04592 12.4565,-8.45712 12.4565,-8.45712c7.87917,2.85664 12.93355,8.45712 12.93355,8.45712h-25.39005" fill="#b88253" fill-rule="nonzero" stroke="none" stroke-width="1"/><path d="M187.30317,72.67267c7.82657,-3.09023 7.30892,3.17774 42.83661,95.40582c20.19839,53.97041 36.18771,98.19181 30.30821,100.03835c-8.57984,3.31198 -22.6382,-41.43539 -42.83659,-95.40582c-30.9338,-88.20224 -39.63324,-96.66033 -30.30823,-100.03835z" data-paper-data="{&quot;index&quot;:null}" fill="url(#color-1)" fill-rule="nonzero" stroke="#000000" stroke-width="0"/><path d="M222.48368,195.65159c-16.74315,0 -24.66272,-11.38458 -27.61971,-27.48781c-0.80892,-4.40521 -2.46462,-35.05395 17.91271,-39.08233c19.12205,-3.78021 40.02316,26.29832 40.02316,36.92517c0,16.37248 -13.57301,29.64493 -30.31612,29.64493z" data-paper-data="{&quot;index&quot;:null}" fill="url(#color-2)" fill-rule="nonzero" stroke="#000000" stroke-width="0"/><path d="M264.2997,230.33339c-7.23398,5.029 -14.90812,7.94661 -22.99365,8.71995c-8.33395,0.79707 -15.49376,1.39391 -22.42175,-4.37204c-13.64948,-11.36005 -15.27866,-35.17994 -4.01368,-44.95866c2.64795,-2.29914 5.98494,-4.49351 8.29716,-5.63335c3.23587,-1.59515 3.51584,-1.83231 10.46782,-3.57096c11.06817,-1.71831 18.18328,-1.66293 26.65043,5.38402c13.64948,11.36005 15.44644,30.96109 4.01368,44.43104z" data-paper-data="{&quot;index&quot;:null}" fill="#fbf8ea" fill-rule="nonzero" stroke="#000000" stroke-width="0"/><path d="M238.89456,182.72766c-11.67605,1.69423 -26.96056,10.19067 -26.96056,10.19067c0,0 5.18976,-5.82014 11.23378,-8.82904c3.23587,-1.59515 3.51584,-1.83231 10.46782,-3.57096c11.06817,-1.71831 18.18328,-1.66293 26.65043,5.38402c1.22344,1.20126 -10.87948,-4.69999 -21.39146,-3.17469z" data-paper-data="{&quot;index&quot;:null}" fill="#ffd983" fill-rule="nonzero" stroke="#000000" stroke-width="0"/><path d="M251.85382,232.62579c0,0 -22.41573,14.08421 -32.96953,2.05551c-13.64948,-11.36005 -15.27866,-35.17994 -4.01368,-44.95866c2.64795,-2.29914 5.98494,-4.49351 8.29716,-5.63335c3.40069,-2.25438 10.46782,-3.57096 10.46782,-3.57096c0,0 -33.89717,11.57601 -22.46265,36.36811c10.31505,22.36489 40.68087,15.73936 40.68087,15.73936z" data-paper-data="{&quot;index&quot;:null}" fill="url(#color-3)" fill-rule="nonzero" stroke="#000000" stroke-width="0"/><path d="M236.64257,234.76846c14.59176,-8.3423 31.78431,-6.63993 39.51271,-2.39756c9.14784,5.02155 16.52739,18.16136 13.77672,35.79046c-2.38648,15.2949 -19.91818,19.53077 -33.76228,19.53077c-15.25575,0 -31.14447,-0.37397 -34.89761,-21.69841c-3.42186,-19.44208 7.87023,-26.93728 15.37048,-31.22527z" data-paper-data="{&quot;index&quot;:null}" fill="#fbf8ea" fill-rule="nonzero" stroke="#000000" stroke-width="0"/><path d="M222.86167,162.72439c-2.58484,0 -4.68029,-2.09543 -4.68029,-4.68031c0,-2.58486 2.09543,-4.68029 4.68029,-4.68029c2.58488,0 4.68029,2.09541 4.68029,4.68029c0,2.58488 -2.09541,4.68031 -4.68029,4.68031z" data-paper-data="{&quot;index&quot;:null}" fill="#000000" fill-rule="nonzero" stroke="#000000" stroke-width="3"/><path d="M244.77087,150.64887z" data-paper-data="{&quot;index&quot;:null}" fill="#000000" fill-rule="nonzero" stroke="#000000" stroke-width="0"/><path d="M245.11,155.53269c-1.25495,0 -4.00199,-3.28967 -4.00199,-4.54464c0,-2.50994 4.22226,-4.11936 6.64903,-1.07014c2.42675,3.04922 -0.13709,5.61478 -2.64703,5.61478z" data-paper-data="{&quot;index&quot;:null}" fill="#000000" fill-rule="nonzero" stroke="#000000" stroke-width="3"/><path d="M231.65136,173.32743c-0.198,0.14046 6.52316,-10.03448 5.02899,-14.7027c-1.14279,-3.56984 -6.05446,-6.76449 -6.05446,-6.76449c0,0 3.37496,1.51289 6.88039,1.49167c3.75195,-0.0215 9.05636,0.02875 16.43331,-2.54421c7.37803,-2.57351 14.25914,-3.76577 18.15224,-2.38703c3.89464,1.37906 6.7014,3.66163 6.7014,3.66163c0,0 -5.77112,-3.36045 -23.87429,8.35439c-14.26925,8.27357 -17.58925,8.85221 -23.26759,12.89072" fill="#e3a066" fill-rule="nonzero" stroke="none" stroke-width="0"/><path d="M231.65136,173.32743c-0.198,0.14046 6.52316,-10.03448 5.02899,-14.7027c-1.14279,-3.56984 -6.55193,-5.38433 -6.05446,-6.76449c0.33088,-0.92072 3.37496,1.51289 6.88039,1.49167c3.75195,-0.0215 9.05636,0.02875 16.43331,-2.54421c7.37803,-2.57351 14.25914,-3.76577 18.15224,-2.38703c3.89464,1.37906 6.7014,3.66163 6.7014,3.66163c0,0 -5.77112,-3.36045 -23.87429,8.35439c-14.26925,8.27357 -17.58925,8.85221 -23.26759,12.89072z" fill="none" fill-rule="evenodd" stroke="none" stroke-width="0"/><path d="M236.42171,234.72634c0,0 -20.61397,18.41855 -6.65985,39.00688c15.45873,22.80827 60.17011,-5.3825 60.17011,-5.3825c0,0 -0.79475,19.1017 -33.76228,19.53077c-15.63344,0.20348 -31.14447,-0.37397 -34.89761,-21.69841c-5.21717,-23.64982 15.14963,-31.45675 15.14963,-31.45675z" data-paper-data="{&quot;index&quot;:null}" fill="url(#color-4)" fill-rule="nonzero" stroke="#000000" stroke-width="0"/><path d="M251.48357,287.62634c5.64681,-5.75413 14.87839,-6.82672 14.87839,-6.82672c7.87917,2.85683 10.51166,6.82672 10.51166,6.82672h-25.39005" fill="#e3a066" fill-rule="nonzero" stroke="none" stroke-width="1"/><path d="M267.918,209.03024c1.39248,-2.77684 -0.26004,-8.1815 -0.09087,-10.78207c-3.7839,-4.35866 -11.48864,-7.90854 1.30508,-8.19336c0,0 -2.33734,1.39549 -2.28812,3.23232c0,0 2.52789,-2.52939 3.57028,-2.49174c0,0 -0.84936,0.84491 -1.42475,2.44504c0,0 1.03291,-2.73433 4.82194,-0.9375c0,0 -2.68752,0.5921 -2.77142,2.29707c0,0 1.7299,0.1157 3.03023,0.07794c0,0 -2.03919,1.31262 -2.51082,3.05862c-0.0343,0.12702 0.14454,0.22463 0.32189,0.29191c1.62539,0.61675 1.64321,1.52461 2.78934,2.53467c0,0 -2.6391,-0.56593 -3.77098,0.84419c0,0 3.50335,-0.15227 4.26035,0.5946c0,0 -1.17394,0.04745 -2.62317,0.84961c0,0 2.51366,-1.33648 4.20917,2.622c0,0 -2.39027,-1.40926 -3.53798,-0.1897c0,0 1.22245,1.27933 2.22069,2.14755c0,0 -3.49447,-0.63284 -3.77185,1.00113z" data-paper-data="{&quot;index&quot;:null}" fill="#fbf8ea" fill-rule="nonzero" stroke="none" stroke-width="1"/><path d="M239.80129,235.68047c-1.65722,0.02146 -1.57219,3.57175 -1.57219,3.57175c-0.70346,-1.12046 -1.77843,-2.526 -1.77843,-2.526c-1.38232,0.94539 -0.35952,3.52479 -0.35952,3.52479c-3.64879,-2.28706 -1.93979,-4.56391 -1.93979,-4.56391c-1.01655,1.3078 -1.24492,2.4603 -1.24492,2.4603c-0.62087,-0.86337 0.07116,-4.30108 0.07116,-4.30108c-1.56814,0.90025 -1.41702,3.59513 -1.41702,3.59513c-0.82073,-1.28852 -1.71492,-1.44647 -2.07298,-3.14766c-0.03906,-0.18562 -0.10786,-0.37741 -0.23865,-0.36315c-1.79791,0.19606 -3.41001,2.0078 -3.41001,2.0078c0.23831,-1.27885 0.39146,-3.00586 0.39146,-3.00586c-1.69747,-0.18069 -2.69791,2.38302 -2.69791,2.38302c-1.18948,-4.02124 1.67165,-4.61905 1.67165,-4.61905c-1.66985,0.3211 -2.6359,1.02963 -2.6359,1.02963c0.12394,-1.03569 3.01371,-3.14216 3.01371,-3.14216c-1.80714,-0.33258 -3.54719,1.76092 -3.54719,1.76092c2.25922,-12.59588 4.57532,-4.43499 8.29663,-0.02276c2.59546,0.23488 7.67968,2.70303 10.6384,1.75658z" data-paper-data="{&quot;index&quot;:null}" fill="#fbf8ea" fill-rule="nonzero" stroke="none" stroke-width="1"/></g></g></svg>