<svg version="1.1" xmlns="http://www.w3.org/2000/svg" xmlns:xlink="http://www.w3.org/1999/xlink" width="120.37717" height="33.55881" viewBox="0,0,120.37717,33.55881"><g transform="translate(-260.38317,-163.89884)"><g data-paper-data="{&quot;isPaintingLayer&quot;:true}" fill-rule="nonzero" stroke-linecap="butt" stroke-linejoin="miter" stroke-miterlimit="10" stroke-dasharray="" stroke-dashoffset="0" style="mix-blend-mode: normal"><path d="M265.71464,196.20765c-2.20914,0 -4,-1.79086 -4,-4v-11.94834c0,-2.20914 1.79086,-4 4,-4h109.7957c2.20914,0 4,1.79086 4,4v11.94834c0,2.20914 -1.79086,4 -4,4z" fill="none" stroke="#ffffff" stroke-width="2.5"/><path d="M265.71464,196.20765c-2.20914,0 -4,-1.79086 -4,-4v-11.94834c0,-2.20914 1.79086,-4 4,-4h109.7957c2.20914,0 4,1.79086 4,4v11.94834c0,2.20914 -1.79086,4 -4,4z" fill="#000000" stroke="none" stroke-width="0"/><text transform="translate(372.40738,183.45085) scale(0.19254,0.19254)" font-size="40" xml:space="preserve" fill="#ffffff" fill-rule="nonzero" stroke="none" stroke-width="1" stroke-linecap="butt" stroke-linejoin="miter" stroke-miterlimit="10" stroke-dasharray="" stroke-dashoffset="0" font-family="Archivo Black" font-weight="normal" text-anchor="start" style="mix-blend-mode: normal"><tspan x="0" dy="0">1</tspan></text><text transform="translate(260.48966,171.45927) scale(0.21297,0.21297)" font-size="40" xml:space="preserve" fill="#ffffff" fill-rule="nonzero" stroke="none" stroke-width="1" stroke-linecap="butt" stroke-linejoin="miter" stroke-miterlimit="10" stroke-dasharray="" stroke-dashoffset="0" font-family="Archivo Black" font-weight="normal" text-anchor="start" style="mix-blend-mode: normal"><tspan x="0" dy="0">Animation intensity</tspan></text><text transform="translate(263.62742,183.2809) scale(0.19254,0.19254)" font-size="40" xml:space="preserve" fill="#ffffff" fill-rule="nonzero" stroke="none" stroke-width="1" stroke-linecap="butt" stroke-linejoin="miter" stroke-miterlimit="10" stroke-dasharray="" stroke-dashoffset="0" font-family="Archivo Black" font-weight="normal" text-anchor="start" style="mix-blend-mode: normal"><tspan x="0" dy="0">0</tspan></text></g></g></svg>