<svg version="1.1" xmlns="http://www.w3.org/2000/svg" xmlns:xlink="http://www.w3.org/1999/xlink" width="66.7595" height="66.7595" viewBox="0,0,66.7595,66.7595"><g transform="translate(-286.62025,-146.62025)"><g data-paper-data="{&quot;isPaintingLayer&quot;:true}" fill-rule="nonzero" stroke="none" stroke-linecap="butt" stroke-linejoin="miter" stroke-miterlimit="10" stroke-dasharray="" stroke-dashoffset="0" style="mix-blend-mode: normal"><path d="M301.16826,180c0,-10.60319 8.59559,-19.19878 19.19878,-19.19878c8.77341,0 16.17231,5.88489 18.4647,13.92263h-6.49734c-2.02812,-4.59348 -6.62335,-7.79937 -11.96735,-7.79937c-7.22142,0 -13.07553,5.85411 -13.07553,13.07553c0,7.22142 5.85411,13.07553 13.07553,13.07553c5.344,0 9.93923,-3.20589 11.96735,-7.79937h6.49734c-2.29239,8.03774 -9.69129,13.92263 -18.4647,13.92263c-10.6032,0 -19.19878,-8.59559 -19.19878,-19.19878z" fill="#ffffff" stroke-width="6.5"/><path d="M286.62025,213.37975v-66.7595h66.7595v66.7595z" fill="none" stroke-width="0"/></g></g></svg>